<?xml version="1.0" standalone="no"?>
<!DOCTYPE svg PUBLIC "-//W3C//DTD SVG 20010904//EN"
 "http://www.w3.org/TR/2001/REC-SVG-20010904/DTD/svg10.dtd">
<svg version="1.0" xmlns="http://www.w3.org/2000/svg"
 width="566.000000pt" height="220.000000pt" viewBox="0 0 566.000000 220.000000"
 preserveAspectRatio="xMidYMid meet">

<g transform="translate(0.000000,220.000000) scale(0.100000,-0.100000)"
fill="#000000" stroke="none">
<path d="M1522 1678 c-85 -127 -150 -234 -145 -239 4 -4 41 -3 82 2 40 6 77 7
82 2 4 -4 2 -69 -6 -143 -8 -74 -13 -136 -11 -137 1 -2 71 99 154 224 87 130
148 231 143 236 -5 5 -40 5 -80 0 -51 -7 -74 -6 -81 2 -6 7 -4 62 5 145 8 74
13 135 12 136 -1 1 -71 -102 -155 -228z"/>
<path d="M2265 1635 c-164 -31 -289 -98 -411 -219 -86 -86 -150 -184 -185
-281 -11 -33 -42 -178 -68 -322 l-48 -263 144 0 c79 0 143 3 143 8 0 4 14 85
30 180 17 96 30 176 30 178 0 2 117 4 260 4 l259 0 6 33 c3 17 14 78 24 135
l18 102 -258 0 c-143 0 -259 1 -259 3 0 1 6 35 14 75 22 117 8 112 293 112
133 0 243 1 243 3 0 1 11 62 24 135 l23 132 -106 -1 c-58 0 -137 -7 -176 -14z"/>
<path d="M2690 1642 c0 -5 -25 -148 -57 -318 -68 -373 -73 -456 -30 -549 15
-32 39 -74 53 -92 36 -47 118 -100 189 -122 284 -88 548 40 633 309 7 19 39
190 72 380 33 190 63 358 66 373 l6 28 -143 -3 -143 -3 -63 -358 c-69 -396
-78 -424 -148 -464 -50 -28 -134 -31 -185 -5 -47 23 -80 75 -80 125 0 22 25
183 55 358 30 175 55 325 55 334 0 13 -21 15 -140 15 -77 0 -140 -4 -140 -8z"/>
<path d="M3765 1638 c-2 -7 -43 -236 -90 -508 -48 -272 -90 -514 -95 -537 l-7
-43 357 0 357 0 16 88 c9 48 19 106 23 130 l7 42 -212 0 c-190 0 -211 2 -211
17 0 9 32 195 70 414 39 218 70 400 70 403 0 3 -63 6 -140 6 -104 0 -142 -3
-145 -12z"/>
<path d="M4626 1633 c-8 -27 -186 -1049 -186 -1067 0 -14 40 -16 354 -16 l354
0 21 113 c11 63 21 121 21 130 0 15 -21 17 -210 17 -161 0 -210 3 -210 13 0 6
32 191 70 410 39 219 70 403 70 408 0 5 -60 9 -139 9 -124 0 -140 -2 -145 -17z"/>
<path d="M888 1401 c-111 -36 -186 -97 -234 -192 -40 -81 -43 -79 116 -79
l139 0 16 30 c29 56 121 78 184 45 32 -16 41 -33 41 -76 0 -48 -27 -56 -200
-62 -173 -6 -233 -20 -297 -67 -114 -84 -132 -290 -35 -394 46 -48 117 -76
198 -76 87 0 149 20 203 67 l42 35 -7 -43 -7 -42 50 6 c108 13 213 90 258 190
14 31 35 118 52 214 24 145 26 168 15 220 -22 106 -101 186 -218 223 -87 26
-234 27 -316 1z m217 -538 c-19 -79 -70 -124 -147 -131 -71 -5 -108 21 -108
77 0 66 27 79 164 80 l98 1 -7 -27z"/>
</g>
</svg>
